<mxfile host="app.diagrams.net" agent="Mozilla/5.0 (Windows NT 10.0; Win64; x64) AppleWebKit/537.36 (KHTML, like Gecko) Chrome/138.0.0.0 Safari/537.36" version="27.2.0">
  <diagram name="Page-1" id="FVx5dhJnwaTcR_TMldWx">
    <mxGraphModel dx="1173" dy="648" grid="1" gridSize="10" guides="1" tooltips="1" connect="1" arrows="1" fold="1" page="1" pageScale="1" pageWidth="850" pageHeight="1100" math="0" shadow="0">
      <root>
        <mxCell id="0" />
        <mxCell id="1" parent="0" />
        <mxCell id="Oe5ISEoBIFR4zirgAWuc-7" style="edgeStyle=orthogonalEdgeStyle;rounded=0;orthogonalLoop=1;jettySize=auto;html=1;" edge="1" parent="1" source="Oe5ISEoBIFR4zirgAWuc-1" target="Oe5ISEoBIFR4zirgAWuc-6">
          <mxGeometry relative="1" as="geometry" />
        </mxCell>
        <mxCell id="Oe5ISEoBIFR4zirgAWuc-36" value="Full Load" style="edgeLabel;html=1;align=center;verticalAlign=middle;resizable=0;points=[];" vertex="1" connectable="0" parent="Oe5ISEoBIFR4zirgAWuc-7">
          <mxGeometry x="-0.1429" y="5" relative="1" as="geometry">
            <mxPoint y="1" as="offset" />
          </mxGeometry>
        </mxCell>
        <mxCell id="Oe5ISEoBIFR4zirgAWuc-1" value="Azure&amp;nbsp; Blob" style="verticalLabelPosition=bottom;html=1;verticalAlign=top;align=center;strokeColor=none;fillColor=#00BEF2;shape=mxgraph.azure.storage_blob;" vertex="1" parent="1">
          <mxGeometry x="70" y="60" width="70" height="45" as="geometry" />
        </mxCell>
        <mxCell id="Oe5ISEoBIFR4zirgAWuc-15" style="edgeStyle=orthogonalEdgeStyle;rounded=0;orthogonalLoop=1;jettySize=auto;html=1;" edge="1" parent="1" source="Oe5ISEoBIFR4zirgAWuc-2">
          <mxGeometry relative="1" as="geometry">
            <mxPoint x="337" y="419" as="targetPoint" />
          </mxGeometry>
        </mxCell>
        <mxCell id="Oe5ISEoBIFR4zirgAWuc-2" value="CSV File" style="shape=image;html=1;verticalAlign=top;verticalLabelPosition=bottom;labelBackgroundColor=#ffffff;imageAspect=0;aspect=fixed;image=https://cdn3.iconfinder.com/data/icons/cad-database-presentation-spreadsheet-vector-fil-2/512/19-128.png" vertex="1" parent="1">
          <mxGeometry x="67" y="390" width="58" height="58" as="geometry" />
        </mxCell>
        <mxCell id="Oe5ISEoBIFR4zirgAWuc-35" style="edgeStyle=orthogonalEdgeStyle;rounded=0;orthogonalLoop=1;jettySize=auto;html=1;" edge="1" parent="1" source="Oe5ISEoBIFR4zirgAWuc-4" target="Oe5ISEoBIFR4zirgAWuc-32">
          <mxGeometry relative="1" as="geometry">
            <Array as="points">
              <mxPoint x="540" y="330" />
            </Array>
          </mxGeometry>
        </mxCell>
        <mxCell id="Oe5ISEoBIFR4zirgAWuc-4" value="One Lake" style="sketch=0;outlineConnect=0;fontColor=#232F3E;gradientColor=none;fillColor=#8C4FFF;strokeColor=none;dashed=0;verticalLabelPosition=bottom;verticalAlign=top;align=center;html=1;fontSize=12;fontStyle=0;aspect=fixed;pointerEvents=1;shape=mxgraph.aws4.data_lake_resource_icon;" vertex="1" parent="1">
          <mxGeometry x="450" y="180" width="100" height="100" as="geometry" />
        </mxCell>
        <mxCell id="Oe5ISEoBIFR4zirgAWuc-11" style="edgeStyle=orthogonalEdgeStyle;rounded=0;orthogonalLoop=1;jettySize=auto;html=1;" edge="1" parent="1" source="Oe5ISEoBIFR4zirgAWuc-6" target="Oe5ISEoBIFR4zirgAWuc-4">
          <mxGeometry relative="1" as="geometry" />
        </mxCell>
        <mxCell id="Oe5ISEoBIFR4zirgAWuc-6" value="Pipeline" style="sketch=0;outlineConnect=0;fontColor=#232F3E;gradientColor=none;fillColor=#F58534;strokeColor=none;dashed=0;verticalLabelPosition=bottom;verticalAlign=top;align=center;html=1;fontSize=12;fontStyle=0;aspect=fixed;pointerEvents=1;shape=mxgraph.aws3.data_pipeline;" vertex="1" parent="1">
          <mxGeometry x="280" y="61.5" width="78" height="42" as="geometry" />
        </mxCell>
        <mxCell id="Oe5ISEoBIFR4zirgAWuc-33" style="edgeStyle=orthogonalEdgeStyle;rounded=0;orthogonalLoop=1;jettySize=auto;html=1;" edge="1" parent="1" source="Oe5ISEoBIFR4zirgAWuc-8" target="Oe5ISEoBIFR4zirgAWuc-4">
          <mxGeometry relative="1" as="geometry" />
        </mxCell>
        <mxCell id="Oe5ISEoBIFR4zirgAWuc-8" value="Dataflow" style="sketch=0;html=1;verticalAlign=top;labelPosition=center;verticalLabelPosition=bottom;align=center;spacingTop=-6;fontSize=11;fontStyle=1;fontColor=#999999;shape=image;aspect=fixed;imageAspect=0;image=data:image/svg+xml,PHN2ZyB4bWxucz0iaHR0cDovL3d3dy53My5vcmcvMjAwMC9zdmciIHhtbG5zOnY9Imh0dHBzOi8vdmVjdGEuaW8vbmFubyIgd2lkdGg9IjE0LjUxOTk5OTUwNDA4OTM1NSIgaGVpZ2h0PSIyMCIgdmlld0JveD0iMCAwIDE0LjUxOTk5OTUwNDA4OTM1NSAyMCI+JiN4YTsJPHN0eWxlIHR5cGU9InRleHQvY3NzIj4mI3hhOwkuc3Qwe2ZpbGwtcnVsZTpldmVub2RkfSYjeGE7CS5zdDF7ZmlsbDojNjY5ZGY2O30mI3hhOwkuc3Qye2ZpbGw6I2FlY2JmYTt9JiN4YTsJLnN0M3tmaWxsOiM0Mjg1ZjQ7fSYjeGE7CTwvc3R5bGU+JiN4YTsJPGcgY2xhc3M9InN0MCI+JiN4YTsJCTxwYXRoIGNsYXNzPSJzdDEiIGQ9Ik03LjM3IDIuMDNsLTEuNzIuOTYgMS41MiAxLjUtLjAyIDEuNzMgMS4wMi4wMS4wMi0xLjczIDQuMjQgMi41Ni0uMDEgMS4wNyAxLjc3LjAzVjYuMTFMOS4wNSAzLjA0bC0uMjctLjk0eiIvPiYjeGE7CQk8cGF0aCBjbGFzcz0ic3QyIiBkPSJNNy4zNiAyLjAzbC0xLjQyLjM1LS4yOS42MUwuMzkgNS45Mi4zNiA3Ljk3IDIuMTQgOGwuMDItMS4wNyA0LjMxLTIuNDUtLjAyIDEuNzMuODYuMDEuMDYtNC4xOXoiLz4mI3hhOwkJPGcgY2xhc3M9InN0MSI+JiN4YTsJCQk8cGF0aCBkPSJNNy4zNiAyLjAzTDMuOTUgMCAyLjIxLjk1bDMuNDQgMi4wNCAxLjcyLS45NnptLjcxIDExLjc2bC0xLjcyLS4wMi0uMDIgMS43Mi44MiAyLjQ4IDEuNDItLjEyLjI5LS44NSA1LjI3LTIuOTMuMDMtMi4wOS0xLjc5LS4wMi0uMDIgMS4xLTQuMyAyLjQ1eiIvPiYjeGE7CQkJPHBhdGggZD0iTTcuMTUgMTcuOTdsLTMuNDYgMS45NGgtLjA1bC0xLjY2LS45OSAzLjQ5LTEuOTYgMS42OCAxLjAxeiIvPiYjeGE7CQk8L2c+JiN4YTsJCTxwYXRoIGNsYXNzPSJzdDMiIGQ9Ik0xMC44OC4wOWgtLjA1TDcuMzcgMi4wM2wxLjY4IDEuMDEgMy40OS0xLjk2ek0xMC42MiAyMGgtLjA1bC0zLjQyLTIuMDNoMCAwIDBsMS43Mi0uOTYgMy40NCAyLjA0eiIvPiYjeGE7CQk8cGF0aCBjbGFzcz0ic3QyIiBkPSJNLjMzIDEzLjg5di0yaDEuNzZsLS4wMSAxLjA0IDQuMjUgMi41Ni4wMi0xLjcyLjg2LjAxLS4wNiA0LjE4LTEuNjgtMXoiLz4mI3hhOwk8L2c+JiN4YTsJPGNpcmNsZSBjbGFzcz0ic3QyIiBjeD0iMTMuMzgiIGN5PSIxMC4wNCIgcj0iMS4xNCIvPiYjeGE7CTxjaXJjbGUgY2xhc3M9InN0MiIgY3g9IjEuMTQiIGN5PSI5Ljg4IiByPSIxLjE0Ii8+JiN4YTsJPGNpcmNsZSBjbGFzcz0ic3QyIiBjeD0iNy4zMiIgY3k9IjcuOTkiIHI9IjEuMTQiLz4mI3hhOwk8Y2lyY2xlIGNsYXNzPSJzdDIiIGN4PSI3LjIzIiBjeT0iMTIiIHI9IjEuMTQiLz4mI3hhOzwvc3ZnPg==;" vertex="1" parent="1">
          <mxGeometry x="327" y="398" width="31" height="42" as="geometry" />
        </mxCell>
        <mxCell id="Oe5ISEoBIFR4zirgAWuc-9" style="edgeStyle=orthogonalEdgeStyle;rounded=0;orthogonalLoop=1;jettySize=auto;html=1;exitX=0.75;exitY=1;exitDx=0;exitDy=0;entryX=0.797;entryY=0.588;entryDx=0;entryDy=0;entryPerimeter=0;" edge="1" parent="1" source="Oe5ISEoBIFR4zirgAWuc-8" target="Oe5ISEoBIFR4zirgAWuc-8">
          <mxGeometry relative="1" as="geometry" />
        </mxCell>
        <mxCell id="Oe5ISEoBIFR4zirgAWuc-30" style="edgeStyle=orthogonalEdgeStyle;rounded=0;orthogonalLoop=1;jettySize=auto;html=1;" edge="1" parent="1" source="Oe5ISEoBIFR4zirgAWuc-13" target="Oe5ISEoBIFR4zirgAWuc-4">
          <mxGeometry relative="1" as="geometry" />
        </mxCell>
        <mxCell id="Oe5ISEoBIFR4zirgAWuc-13" value="PySpark Notebooks" style="whiteSpace=wrap;html=1;shape=mxgraph.basic.document" vertex="1" parent="1">
          <mxGeometry x="670" y="60" width="120" height="130" as="geometry" />
        </mxCell>
        <mxCell id="Oe5ISEoBIFR4zirgAWuc-29" style="edgeStyle=orthogonalEdgeStyle;rounded=0;orthogonalLoop=1;jettySize=auto;html=1;entryX=-0.018;entryY=0.198;entryDx=0;entryDy=0;entryPerimeter=0;" edge="1" parent="1" source="Oe5ISEoBIFR4zirgAWuc-4" target="Oe5ISEoBIFR4zirgAWuc-13">
          <mxGeometry relative="1" as="geometry" />
        </mxCell>
        <mxCell id="Oe5ISEoBIFR4zirgAWuc-32" value="" style="verticalLabelPosition=bottom;sketch=0;aspect=fixed;html=1;verticalAlign=top;strokeColor=none;align=center;outlineConnect=0;shape=mxgraph.citrix.reporting;" vertex="1" parent="1">
          <mxGeometry x="710" y="280" width="115.87" height="130" as="geometry" />
        </mxCell>
      </root>
    </mxGraphModel>
  </diagram>
</mxfile>
